<svg fill="none" height="24" viewBox="0 0 24 24" width="24" xmlns="http://www.w3.org/2000/svg"><path clip-rule="evenodd" d="m3.70247 10.7661c0-3.90894 3.16879-7.07773 7.07773-7.07773 3.9089 0 7.0776 3.16879 7.0776 7.07773 0 3.9089-3.1687 7.0776-7.0776 7.0776-3.90894 0-7.07773-3.1687-7.07773-7.0776zm7.07773-8.7802c-4.84919 0-8.7802 3.93101-8.7802 8.7802 0 4.8491 3.93101 8.7801 8.7802 8.7801 2.2735 0 4.3451-.8641 5.9045-2.2818l3.8621 3.8622c.3325.3324.8714.3324 1.2039 0 .3324-.3324.3324-.8714 0-1.2038l-3.9213-3.9213c1.0874-1.4618 1.7309-3.2735 1.7309-5.2354 0-4.84919-3.931-8.7802-8.7801-8.7802z" fill="#fff" fill-rule="evenodd"/></svg>